<?xml version="1.0" encoding="utf-8"?>
<!-- Generated by IcoMoon.io -->
<!DOCTYPE svg PUBLIC "-//W3C//DTD SVG 1.1//EN" "http://www.w3.org/Graphics/SVG/1.1/DTD/svg11.dtd">
<svg version="1.1" xmlns="http://www.w3.org/2000/svg" xmlns:xlink="http://www.w3.org/1999/xlink" width="128" height="128" viewBox="0 0 128 128">
<g>
</g>
	<path d="M128 64c0 35.346-28.654 64-64 64s-64-28.654-64-64 28.654-64 64-64 64 28.654 64 64zM12 64c0 28.719 23.281 52 52 52s52-23.281 52-52-23.281-52-52-52-52 23.281-52 52zM69.657 26.343l32 32c3.124 3.124 3.124 8.189 0 11.314s-8.189 3.124-11.314 0l-18.343-18.343v44.686c0 4.418-3.582 8-8 8s-8-3.582-8-8v-44.686l-18.343 18.343c-3.124 3.124-8.19 3.124-11.314 0-1.562-1.562-2.343-3.61-2.343-5.657s0.781-4.095 2.343-5.657l32-32c3.124-3.124 8.19-3.124 11.314 0z" fill="#da807d" />
</svg>
