<?xml version="1.0" encoding="utf-8"?>
<!-- Generated by IcoMoon.io -->
<!DOCTYPE svg PUBLIC "-//W3C//DTD SVG 1.1//EN" "http://www.w3.org/Graphics/SVG/1.1/DTD/svg11.dtd">
<svg version="1.1" xmlns="http://www.w3.org/2000/svg" xmlns:xlink="http://www.w3.org/1999/xlink" width="128" height="128" viewBox="0 0 128 128">
<g>
</g>
	<path d="M105.251 73.685c-1.706-1.681-5.489-2.571-11.246-2.647-3.897-0.043-8.588 0.3-13.521 0.991-2.209-1.275-4.487-2.662-6.273-4.332-4.808-4.489-8.821-10.721-11.322-17.574 0.163-0.64 0.302-1.203 0.431-1.776 0 0 2.708-15.383 1.991-20.583-0.099-0.713-0.159-0.92-0.351-1.474l-0.235-0.604c-0.737-1.699-2.181-3.499-4.446-3.401l-1.364-0.043c-2.525 0-4.583 1.291-5.123 3.222-1.642 6.054 0.052 15.112 3.123 26.842l-0.786 1.911c-2.199 5.359-4.954 10.758-7.385 15.52l-0.316 0.619c-2.557 5.005-4.878 9.253-6.982 12.853l-2.172 1.148c-0.158 0.084-3.88 2.052-4.754 2.581-7.407 4.423-12.315 9.442-13.13 13.427-0.259 1.271-0.066 2.898 1.252 3.652l2.101 1.057c0.911 0.457 1.872 0.688 2.857 0.688 5.276 0 11.4-6.572 19.837-21.296 9.741-3.171 20.832-5.807 30.552-7.261 7.407 4.171 16.518 7.068 22.268 7.068 1.021 0 1.901-0.097 2.617-0.287 1.103-0.292 2.032-0.921 2.599-1.774 1.116-1.679 1.342-3.992 1.039-6.359-0.090-0.703-0.651-1.572-1.259-2.165zM26.456 101.756c0.962-2.63 4.77-7.831 10.4-12.445 0.354-0.287 1.226-1.104 2.024-1.863-5.888 9.391-9.831 13.133-12.425 14.307zM59.804 24.961c1.696 0 2.66 4.274 2.74 8.282s-0.857 6.82-2.020 8.901c-0.963-3.081-1.428-7.938-1.428-11.113 0 0-0.071-6.070 0.708-6.070zM49.856 79.687c1.181-2.115 2.41-4.344 3.666-6.71 3.062-5.79 4.995-10.319 6.435-14.043 2.864 5.21 6.43 9.64 10.623 13.189 0.523 0.443 1.077 0.888 1.659 1.331-8.526 1.687-15.895 3.739-22.383 6.233zM103.613 79.207c-0.519 0.325-2.007 0.513-2.963 0.513-3.088 0-6.909-1.412-12.266-3.708 2.058-0.152 3.945-0.23 5.638-0.23 3.098 0 4.015-0.013 7.044 0.759s3.067 2.342 2.548 2.666zM112.929 24.929l-17.858-17.858c-3.889-3.889-11.571-7.071-17.071-7.071h-60c-5.5 0-10 4.5-10 10v108c0 5.5 4.5 10 10 10h92c5.5 0 10-4.5 10-10v-76c0-5.5-3.182-13.182-7.071-17.071zM107.272 30.586c0.391 0.391 0.781 0.872 1.16 1.414h-20.432v-20.432c0.543 0.379 1.023 0.769 1.414 1.16l17.858 17.858zM112 118c0 1.084-0.916 2-2 2h-92c-1.084 0-2-0.916-2-2v-108c0-1.084 0.916-2 2-2h60c0.604 0 1.282 0.076 2 0.213v31.787h31.787c0.137 0.718 0.213 1.396 0.213 2v76z" fill="#da807d" />
</svg>
