<?xml version="1.0" encoding="utf-8"?>
<!-- Generated by IcoMoon.io -->
<!DOCTYPE svg PUBLIC "-//W3C//DTD SVG 1.1//EN" "http://www.w3.org/Graphics/SVG/1.1/DTD/svg11.dtd">
<svg version="1.1" xmlns="http://www.w3.org/2000/svg" xmlns:xlink="http://www.w3.org/1999/xlink" width="128" height="128" viewBox="0 0 128 128">
<g>
</g>
	<path d="M79.972 59.486h5.526l-6.376 28.272-8.291-39.751h-13.319l-9.639 39.751-7.227-39.751h-13.924l14.136 63.985h13.605l9.537-37.839 8.532 37.839h12.542l16.204-63.985h-21.306zM112.929 24.929l-17.858-17.858c-3.889-3.889-11.571-7.071-17.071-7.071h-60c-5.5 0-10 4.5-10 10v108c0 5.5 4.5 10 10 10h92c5.5 0 10-4.5 10-10v-76c0-5.5-3.182-13.182-7.071-17.071zM107.272 30.586c0.391 0.391 0.781 0.872 1.16 1.414h-20.432v-20.432c0.543 0.379 1.023 0.769 1.414 1.16l17.858 17.858zM112 118c0 1.084-0.916 2-2 2h-92c-1.084 0-2-0.916-2-2v-108c0-1.084 0.916-2 2-2h60c0.604 0 1.282 0.076 2 0.213v31.787h31.787c0.137 0.718 0.213 1.396 0.213 2v76z" fill="#da807d" />
</svg>
