<?xml version="1.0" encoding="utf-8"?>
<!-- Generated by IcoMoon.io -->
<!DOCTYPE svg PUBLIC "-//W3C//DTD SVG 1.1//EN" "http://www.w3.org/Graphics/SVG/1.1/DTD/svg11.dtd">
<svg version="1.1" xmlns="http://www.w3.org/2000/svg" xmlns:xlink="http://www.w3.org/1999/xlink" width="128" height="128" viewBox="0 0 128 128">
<g>
</g>
	<path d="M64 0c-22.091 0-40 17.909-40 40 0 40 40 88 40 88s40-48 40-88c0-22.091-17.909-40-40-40zM64 64.5c-13.531 0-24.5-10.969-24.5-24.5s10.969-24.5 24.5-24.5 24.5 10.969 24.5 24.5-10.969 24.5-24.5 24.5zM48.5 40c0-8.56 6.94-15.5 15.5-15.5s15.5 6.94 15.5 15.5c0 8.56-6.94 15.5-15.5 15.5-8.56 0-15.5-6.94-15.5-15.5z" fill="#da807d" />
</svg>
